<?xml version="1.0" encoding="utf-8"?><svg viewBox="0 0 48 48" xmlns="http://www.w3.org/2000/svg" xmlns:xlink="http://www.w3.org/1999/xlink"><style>:root>svg{display:none}:root>svg:target{display:block}</style><svg fill="none" viewBox="0 0 32 32" id="burger-menu" xmlns="http://www.w3.org/2000/svg"><path d="M4 24h24v-2.667H4V24zm0-6.667h24v-2.666H4v2.666zM4 8v2.667h24V8H4z" fill="#356EAD"/></svg><svg fill="none" viewBox="0 0 22 22" id="close-menu" xmlns="http://www.w3.org/2000/svg"><path d="M22 2.2L19.8 0 11 8.8 2.2 0 0 2.2 8.8 11 0 19.8 2.2 22l8.8-8.8 8.8 8.8 2.2-2.2-8.8-8.8L22 2.2z" fill="#fff"/></svg><svg fill="none" viewBox="0 0 48 48" id="logo" xmlns="http://www.w3.org/2000/svg"><circle cx="16" cy="24" r="16" fill="#316099"/><circle cx="32" cy="24" r="15" fill="#fff" stroke="#316099" stroke-width="2"/><path d="M39.3 30l-4.92-14h-3.42l-4.9 14h2.98l.84-2.52h5.58L36.3 30h3zm-6.62-10.82l1.92 5.72h-3.84l1.92-5.72z" fill="#316099"/></svg><svg fill="none" viewBox="0 0 48 48" id="logo-alt" xmlns="http://www.w3.org/2000/svg"><circle cx="16" cy="24" r="16" fill="#98C3E8"/><circle cx="32" cy="24" r="15" fill="#fff" stroke="#316099" stroke-width="2"/><path d="M38.3 31l-4.92-14h-3.42l-4.9 14h2.98l.84-2.52h5.58L35.3 31h3zm-6.62-10.82l1.92 5.72h-3.84l1.92-5.72z" fill="#316099"/></svg><svg fill="none" viewBox="0 0 15 10" id="show-subitem" xmlns="http://www.w3.org/2000/svg"><path d="M1.875.75L7.5 6.5 13.25.75 15 2.5 7.5 10 0 2.5 1.875.75z" fill="#fff"/></svg></svg>